<svg width="30" height="27" viewBox="0 0 30 27" fill="none" xmlns="http://www.w3.org/2000/svg">
<path d="M0.336914 27.0036V5.67025H7.20358L9.67025 3.00358H17.6702V5.67025H10.8369L8.40358 8.33692H3.00358V24.3369H24.3369V12.3369H27.0036V27.0036H0.336914ZM24.3369 8.33692V5.67025H21.6702V3.00358H24.3369V0.336914H27.0036V3.00358H29.6702V5.67025H27.0036V8.33692H24.3369ZM13.6702 22.3369C15.3369 22.3369 16.7536 21.7536 17.9202 20.5869C19.0869 19.4203 19.6702 18.0036 19.6702 16.3369C19.6702 14.6703 19.0869 13.2536 17.9202 12.0869C16.7536 10.9203 15.3369 10.3369 13.6702 10.3369C12.0036 10.3369 10.5869 10.9203 9.42025 12.0869C8.25358 13.2536 7.67025 14.6703 7.67025 16.3369C7.67025 18.0036 8.25358 19.4203 9.42025 20.5869C10.5869 21.7536 12.0036 22.3369 13.6702 22.3369ZM13.6702 19.6703C12.7369 19.6703 11.948 19.348 11.3036 18.7036C10.6591 18.0591 10.3369 17.2703 10.3369 16.3369C10.3369 15.4036 10.6591 14.6147 11.3036 13.9703C11.948 13.3258 12.7369 13.0036 13.6702 13.0036C14.6036 13.0036 15.3925 13.3258 16.0369 13.9703C16.6814 14.6147 17.0036 15.4036 17.0036 16.3369C17.0036 17.2703 16.6814 18.0591 16.0369 18.7036C15.3925 19.348 14.6036 19.6703 13.6702 19.6703Z" fill="white"/>
</svg>
