<svg width="21" height="20" viewBox="0 0 21 20" fill="none" xmlns="http://www.w3.org/2000/svg">
<path d="M9.25 15H11.25V11H15.25V9H11.25V5H9.25V9H5.25V11H9.25V15ZM10.25 20C8.86667 20 7.56667 19.7375 6.35 19.2125C5.13333 18.6875 4.075 17.975 3.175 17.075C2.275 16.175 1.5625 15.1167 1.0375 13.9C0.5125 12.6833 0.25 11.3833 0.25 10C0.25 8.61667 0.5125 7.31667 1.0375 6.1C1.5625 4.88333 2.275 3.825 3.175 2.925C4.075 2.025 5.13333 1.3125 6.35 0.7875C7.56667 0.2625 8.86667 0 10.25 0C11.6333 0 12.9333 0.2625 14.15 0.7875C15.3667 1.3125 16.425 2.025 17.325 2.925C18.225 3.825 18.9375 4.88333 19.4625 6.1C19.9875 7.31667 20.25 8.61667 20.25 10C20.25 11.3833 19.9875 12.6833 19.4625 13.9C18.9375 15.1167 18.225 16.175 17.325 17.075C16.425 17.975 15.3667 18.6875 14.15 19.2125C12.9333 19.7375 11.6333 20 10.25 20ZM10.25 18C12.4833 18 14.375 17.225 15.925 15.675C17.475 14.125 18.25 12.2333 18.25 10C18.25 7.76667 17.475 5.875 15.925 4.325C14.375 2.775 12.4833 2 10.25 2C8.01667 2 6.125 2.775 4.575 4.325C3.025 5.875 2.25 7.76667 2.25 10C2.25 12.2333 3.025 14.125 4.575 15.675C6.125 17.225 8.01667 18 10.25 18Z" fill="#1C1B1F"/>
</svg>
