<svg width="44" height="40" viewBox="0 0 44 40" fill="none" xmlns="http://www.w3.org/2000/svg">
<path d="M14.0113 4.01641H25.9934V7.99141H15.7559V7.98536L15.7466 7.99548L12.1003 11.9914H4.00586H3.99336V12.0039V36.0039V36.0164H4.00586H36.0059H36.0184V36.0039V18.0164H39.9934V39.9914H0.0183594V8.01641H10.3059V8.02232L10.315 8.0124L14.0113 4.01641ZM39.9934 8.00391V11.9914H36.0184V8.00391V7.99141H36.0059H32.0184V4.01641H36.0059H36.0184V4.00391V0.0164063H39.9934V4.00391V4.01641H40.0059H43.9933V7.99141H40.0059H39.9934V8.00391ZM26.372 30.3701C24.6244 32.1177 22.5026 32.9914 20.0059 32.9914C17.5091 32.9914 15.3873 32.1177 13.6397 30.3701C11.8921 28.6224 11.0184 26.5006 11.0184 24.0039C11.0184 21.5072 11.8921 19.3854 13.6397 17.6377C15.3873 15.8901 17.5091 15.0164 20.0059 15.0164C22.5026 15.0164 24.6244 15.8901 26.372 17.6377C28.1196 19.3854 28.9934 21.5072 28.9934 24.0039C28.9934 26.5006 28.1196 28.6224 26.372 30.3701ZM16.447 27.5628C17.4161 28.5318 18.6026 29.0164 20.0059 29.0164C21.4091 29.0164 22.5956 28.5318 23.5647 27.5628C24.5338 26.5937 25.0184 25.4071 25.0184 24.0039C25.0184 22.6007 24.5338 21.4141 23.5647 20.4451C22.5956 19.476 21.4091 18.9914 20.0059 18.9914C18.6026 18.9914 17.4161 19.476 16.447 20.4451C15.4779 21.4141 14.9934 22.6007 14.9934 24.0039C14.9934 25.4071 15.4779 26.5937 16.447 27.5628Z" fill="url(#paint0_linear_237_1555)" stroke="#6D6F72" stroke-width="0.025"/>
<defs>
<linearGradient id="paint0_linear_237_1555" x1="44.0058" y1="0.00390863" x2="-6.98595" y2="13.4103" gradientUnits="userSpaceOnUse">
<stop stop-color="#B71F26"/>
<stop offset="0.76" stop-color="#640509"/>
</linearGradient>
</defs>
</svg>
