<svg width="22" height="22" viewBox="0 0 22 22" fill="none" xmlns="http://www.w3.org/2000/svg">
<path d="M11.0003 16.416C11.3073 16.416 11.5646 16.3122 11.7722 16.1046C11.9798 15.8969 12.0837 15.6396 12.0837 15.3327C12.0837 15.0257 11.9798 14.7684 11.7722 14.5608C11.5646 14.3532 11.3073 14.2493 11.0003 14.2493C10.6934 14.2493 10.4361 14.3532 10.2285 14.5608C10.0208 14.7684 9.91699 15.0257 9.91699 15.3327C9.91699 15.6396 10.0208 15.8969 10.2285 16.1046C10.4361 16.3122 10.6934 16.416 11.0003 16.416ZM9.91699 12.0827H12.0837V5.58268H9.91699V12.0827ZM11.0003 21.8327C9.50171 21.8327 8.09338 21.5483 6.77533 20.9796C5.45727 20.4108 4.31074 19.6389 3.33574 18.6639C2.36074 17.6889 1.58887 16.5424 1.02012 15.2243C0.451367 13.9063 0.166992 12.498 0.166992 10.9993C0.166992 9.50074 0.451367 8.0924 1.02012 6.77435C1.58887 5.45629 2.36074 4.30977 3.33574 3.33477C4.31074 2.35977 5.45727 1.58789 6.77533 1.01914C8.09338 0.450391 9.50171 0.166016 11.0003 0.166016C12.4989 0.166016 13.9073 0.450391 15.2253 1.01914C16.5434 1.58789 17.6899 2.35977 18.6649 3.33477C19.6399 4.30977 20.4118 5.45629 20.9805 6.77435C21.5493 8.0924 21.8337 9.50074 21.8337 10.9993C21.8337 12.498 21.5493 13.9063 20.9805 15.2243C20.4118 16.5424 19.6399 17.6889 18.6649 18.6639C17.6899 19.6389 16.5434 20.4108 15.2253 20.9796C13.9073 21.5483 12.4989 21.8327 11.0003 21.8327ZM11.0003 19.666C13.4198 19.666 15.4691 18.8264 17.1482 17.1473C18.8274 15.4681 19.667 13.4188 19.667 10.9993C19.667 8.5799 18.8274 6.5306 17.1482 4.85143C15.4691 3.17227 13.4198 2.33268 11.0003 2.33268C8.58088 2.33268 6.53158 3.17227 4.85241 4.85143C3.17324 6.5306 2.33366 8.5799 2.33366 10.9993C2.33366 13.4188 3.17324 15.4681 4.85241 17.1473C6.53158 18.8264 8.58088 19.666 11.0003 19.666Z" fill="#FF8413"/>
</svg>
