<svg width="35" height="34" viewBox="0 0 35 34" fill="none" xmlns="http://www.w3.org/2000/svg">
<path d="M17.5004 25.334C17.9726 25.334 18.3685 25.1743 18.6879 24.8548C19.0074 24.5354 19.1671 24.1395 19.1671 23.6673C19.1671 23.1951 19.0074 22.7993 18.6879 22.4798C18.3685 22.1604 17.9726 22.0007 17.5004 22.0007C17.0282 22.0007 16.6324 22.1604 16.3129 22.4798C15.9935 22.7993 15.8337 23.1951 15.8337 23.6673C15.8337 24.1395 15.9935 24.5354 16.3129 24.8548C16.6324 25.1743 17.0282 25.334 17.5004 25.334ZM15.8337 18.6673H19.1671V8.66732H15.8337V18.6673ZM17.5004 33.6673C15.1949 33.6673 13.0282 33.2298 11.0004 32.3548C8.97263 31.4798 7.20874 30.2923 5.70874 28.7923C4.20874 27.2923 3.02124 25.5284 2.14624 23.5007C1.27124 21.4729 0.83374 19.3062 0.83374 17.0007C0.83374 14.6951 1.27124 12.5284 2.14624 10.5007C3.02124 8.47287 4.20874 6.70898 5.70874 5.20898C7.20874 3.70898 8.97263 2.52148 11.0004 1.64648C13.0282 0.771484 15.1949 0.333984 17.5004 0.333984C19.806 0.333984 21.9726 0.771484 24.0004 1.64648C26.0282 2.52148 27.7921 3.70898 29.2921 5.20898C30.7921 6.70898 31.9796 8.47287 32.8546 10.5007C33.7296 12.5284 34.1671 14.6951 34.1671 17.0007C34.1671 19.3062 33.7296 21.4729 32.8546 23.5007C31.9796 25.5284 30.7921 27.2923 29.2921 28.7923C27.7921 30.2923 26.0282 31.4798 24.0004 32.3548C21.9726 33.2298 19.806 33.6673 17.5004 33.6673ZM17.5004 30.334C21.2226 30.334 24.3754 29.0423 26.9587 26.459C29.5421 23.8757 30.8337 20.7229 30.8337 17.0007C30.8337 13.2784 29.5421 10.1257 26.9587 7.54232C24.3754 4.95898 21.2226 3.66732 17.5004 3.66732C13.7782 3.66732 10.6254 4.95898 8.04207 7.54232C5.45874 10.1257 4.16707 13.2784 4.16707 17.0007C4.16707 20.7229 5.45874 23.8757 8.04207 26.459C10.6254 29.0423 13.7782 30.334 17.5004 30.334Z" fill="#B71F26"/>
</svg>
