<svg width="34" height="34" viewBox="0 0 34 34" fill="none" xmlns="http://www.w3.org/2000/svg">
<path d="M17.0007 25.334C17.4729 25.334 17.8687 25.1743 18.1882 24.8548C18.5076 24.5354 18.6673 24.1395 18.6673 23.6673C18.6673 23.1951 18.5076 22.7993 18.1882 22.4798C17.8687 22.1604 17.4729 22.0007 17.0007 22.0007C16.5284 22.0007 16.1326 22.1604 15.8132 22.4798C15.4937 22.7993 15.334 23.1951 15.334 23.6673C15.334 24.1395 15.4937 24.5354 15.8132 24.8548C16.1326 25.1743 16.5284 25.334 17.0007 25.334ZM15.334 18.6673H18.6673V8.66732H15.334V18.6673ZM17.0007 33.6673C14.6951 33.6673 12.5284 33.2298 10.5007 32.3548C8.47287 31.4798 6.70898 30.2923 5.20898 28.7923C3.70898 27.2923 2.52148 25.5284 1.64648 23.5007C0.771484 21.4729 0.333984 19.3062 0.333984 17.0007C0.333984 14.6951 0.771484 12.5284 1.64648 10.5007C2.52148 8.47287 3.70898 6.70898 5.20898 5.20898C6.70898 3.70898 8.47287 2.52148 10.5007 1.64648C12.5284 0.771484 14.6951 0.333984 17.0007 0.333984C19.3062 0.333984 21.4729 0.771484 23.5007 1.64648C25.5284 2.52148 27.2923 3.70898 28.7923 5.20898C30.2923 6.70898 31.4798 8.47287 32.3548 10.5007C33.2298 12.5284 33.6673 14.6951 33.6673 17.0007C33.6673 19.3062 33.2298 21.4729 32.3548 23.5007C31.4798 25.5284 30.2923 27.2923 28.7923 28.7923C27.2923 30.2923 25.5284 31.4798 23.5007 32.3548C21.4729 33.2298 19.3062 33.6673 17.0007 33.6673ZM17.0007 30.334C20.7229 30.334 23.8757 29.0423 26.459 26.459C29.0423 23.8757 30.334 20.7229 30.334 17.0007C30.334 13.2784 29.0423 10.1257 26.459 7.54232C23.8757 4.95898 20.7229 3.66732 17.0007 3.66732C13.2784 3.66732 10.1257 4.95898 7.54232 7.54232C4.95898 10.1257 3.66732 13.2784 3.66732 17.0007C3.66732 20.7229 4.95898 23.8757 7.54232 26.459C10.1257 29.0423 13.2784 30.334 17.0007 30.334Z" fill="white"/>
</svg>
