<svg width="21" height="13" viewBox="0 0 21 13" fill="none" xmlns="http://www.w3.org/2000/svg">
<path d="M0.5 13V11H10.5V13H0.5ZM0.5 8V6H5.5V8H0.5ZM0.5 3V1H5.5V3H0.5ZM19.1 13L15.25 9.15C14.85 9.43333 14.4125 9.64583 13.9375 9.7875C13.4625 9.92917 12.9833 10 12.5 10C11.1167 10 9.9375 9.5125 8.9625 8.5375C7.9875 7.5625 7.5 6.38333 7.5 5C7.5 3.61667 7.9875 2.4375 8.9625 1.4625C9.9375 0.4875 11.1167 0 12.5 0C13.8833 0 15.0625 0.4875 16.0375 1.4625C17.0125 2.4375 17.5 3.61667 17.5 5C17.5 5.48333 17.4292 5.9625 17.2875 6.4375C17.1458 6.9125 16.9333 7.35 16.65 7.75L20.5 11.6L19.1 13ZM12.5 8C13.3333 8 14.0417 7.70833 14.625 7.125C15.2083 6.54167 15.5 5.83333 15.5 5C15.5 4.16667 15.2083 3.45833 14.625 2.875C14.0417 2.29167 13.3333 2 12.5 2C11.6667 2 10.9583 2.29167 10.375 2.875C9.79167 3.45833 9.5 4.16667 9.5 5C9.5 5.83333 9.79167 6.54167 10.375 7.125C10.9583 7.70833 11.6667 8 12.5 8Z" fill="#6D6F72"/>
</svg>
