<svg width="22" height="16" viewBox="0 0 22 16" fill="none" xmlns="http://www.w3.org/2000/svg">
<path d="M11.0462 15.3337C8.99894 15.3337 7.25727 14.6232 5.82116 13.2024C4.38505 11.7816 3.66699 10.0475 3.66699 8.00033V7.83991L2.20033 9.30658L0.916992 8.02324L4.58366 4.35658L8.25033 8.02324L6.96699 9.30658L5.50033 7.83991V8.00033C5.50033 9.5281 6.03887 10.8267 7.11595 11.8962C8.19303 12.9656 9.5031 13.5003 11.0462 13.5003C11.4434 13.5003 11.833 13.4545 12.2149 13.3628C12.5969 13.2712 12.9712 13.1337 13.3378 12.9503L14.7128 14.3253C14.1323 14.6614 13.5364 14.9135 12.9253 15.0816C12.3142 15.2496 11.6878 15.3337 11.0462 15.3337ZM17.417 11.6441L13.7503 7.97741L15.0337 6.69408L16.5003 8.16074V8.00033C16.5003 6.47255 15.9618 5.17394 14.8847 4.10449C13.8076 3.03505 12.4975 2.50033 10.9545 2.50033C10.5573 2.50033 10.1677 2.54616 9.78574 2.63783C9.4038 2.72949 9.02949 2.86699 8.66283 3.05033L7.28783 1.67533C7.86838 1.33921 8.46421 1.08713 9.07533 0.919076C9.68644 0.75102 10.3128 0.666992 10.9545 0.666992C13.0017 0.666992 14.7434 1.37741 16.1795 2.79824C17.6156 4.21908 18.3337 5.9531 18.3337 8.00033V8.16074L19.8003 6.69408L21.0837 7.97741L17.417 11.6441Z" fill="white"/>
</svg>
