<svg width="22" height="20" viewBox="0 0 22 20" fill="none" xmlns="http://www.w3.org/2000/svg">
<path d="M14.175 5.82461C14.6583 6.30794 15.0125 6.85794 15.2375 7.47461C15.4625 8.09128 15.5417 8.72461 15.475 9.37461C15.475 9.62461 15.3833 9.83711 15.2 10.0121C15.0167 10.1871 14.8 10.2746 14.55 10.2746C14.3 10.2746 14.0875 10.1871 13.9125 10.0121C13.7375 9.83711 13.65 9.62461 13.65 9.37461C13.7333 8.94128 13.7083 8.52461 13.575 8.12461C13.4417 7.72461 13.2333 7.38294 12.95 7.09961C12.6667 6.81628 12.325 6.59961 11.925 6.44961C11.525 6.29961 11.1 6.26628 10.65 6.34961C10.4 6.34961 10.1875 6.25794 10.0125 6.07461C9.8375 5.89128 9.75 5.67461 9.75 5.42461C9.75 5.17461 9.8375 4.96211 10.0125 4.78711C10.1875 4.61211 10.4 4.52461 10.65 4.52461C11.2833 4.45794 11.9083 4.53711 12.525 4.76211C13.1417 4.98711 13.6917 5.34128 14.175 5.82461ZM11 3.49961C10.6833 3.49961 10.375 3.51211 10.075 3.53711C9.775 3.56211 9.475 3.60794 9.175 3.67461C8.89167 3.72461 8.6375 3.68294 8.4125 3.54961C8.1875 3.41628 8.03333 3.21628 7.95 2.94961C7.86667 2.68294 7.89583 2.42461 8.0375 2.17461C8.17917 1.92461 8.38333 1.77461 8.65 1.72461C9.03333 1.64128 9.42083 1.58294 9.8125 1.54961C10.2042 1.51628 10.6 1.49961 11 1.49961C13.2833 1.49961 15.3708 2.09961 17.2625 3.29961C19.1542 4.49961 20.6 6.11628 21.6 8.14961C21.6667 8.28294 21.7167 8.42044 21.75 8.56211C21.7833 8.70378 21.8 8.84961 21.8 8.99961C21.8 9.14961 21.7875 9.29544 21.7625 9.43711C21.7375 9.57878 21.6917 9.71628 21.625 9.84961C21.325 10.5163 20.9542 11.1413 20.5125 11.7246C20.0708 12.3079 19.5833 12.8413 19.05 13.3246C18.85 13.5079 18.6167 13.5829 18.35 13.5496C18.0833 13.5163 17.8667 13.3829 17.7 13.1496C17.5333 12.9163 17.4625 12.6621 17.4875 12.3871C17.5125 12.1121 17.625 11.8829 17.825 11.6996C18.225 11.3163 18.5917 10.8996 18.925 10.4496C19.2583 9.99961 19.55 9.51628 19.8 8.99961C18.9667 7.31628 17.7625 5.97878 16.1875 4.98711C14.6125 3.99544 12.8833 3.49961 11 3.49961ZM11 16.4996C8.76667 16.4996 6.725 15.8954 4.875 14.6871C3.025 13.4788 1.56667 11.8913 0.5 9.92461C0.416667 9.79128 0.354167 9.64544 0.3125 9.48711C0.270833 9.32878 0.25 9.16628 0.25 8.99961C0.25 8.83294 0.266667 8.67461 0.3 8.52461C0.333333 8.37461 0.391667 8.22461 0.475 8.07461C0.808333 7.40794 1.19583 6.77044 1.6375 6.16211C2.07917 5.55378 2.58333 4.99961 3.15 4.49961L1.075 2.39961C0.891667 2.19961 0.804167 1.96211 0.8125 1.68711C0.820833 1.41211 0.916667 1.18294 1.1 0.999609C1.28333 0.816276 1.51667 0.724609 1.8 0.724609C2.08333 0.724609 2.31667 0.816276 2.5 0.999609L19.5 17.9996C19.6833 18.1829 19.7792 18.4121 19.7875 18.6871C19.7958 18.9621 19.7 19.1996 19.5 19.3996C19.3167 19.5829 19.0833 19.6746 18.8 19.6746C18.5167 19.6746 18.2833 19.5829 18.1 19.3996L14.6 15.9496C14.0167 16.1329 13.425 16.2704 12.825 16.3621C12.225 16.4538 11.6167 16.4996 11 16.4996ZM4.55 5.89961C4.06667 6.33294 3.625 6.80794 3.225 7.32461C2.825 7.84128 2.48333 8.39961 2.2 8.99961C3.03333 10.6829 4.2375 12.0204 5.8125 13.0121C7.3875 14.0038 9.11667 14.4996 11 14.4996C11.3333 14.4996 11.6583 14.4788 11.975 14.4371C12.2917 14.3954 12.6167 14.3496 12.95 14.2996L12.05 13.3496C11.8667 13.3996 11.6917 13.4371 11.525 13.4621C11.3583 13.4871 11.1833 13.4996 11 13.4996C9.75 13.4996 8.6875 13.0621 7.8125 12.1871C6.9375 11.3121 6.5 10.2496 6.5 8.99961C6.5 8.81628 6.5125 8.64128 6.5375 8.47461C6.5625 8.30794 6.6 8.13294 6.65 7.94961L4.55 5.89961Z" fill="#AFAFAF"/>
</svg>
