<svg width="22" height="15" viewBox="0 0 22 15" fill="none" xmlns="http://www.w3.org/2000/svg">
<path d="M10.9998 11.667C12.1457 11.667 13.1196 11.266 13.9217 10.4639C14.7238 9.66178 15.1248 8.68783 15.1248 7.54199C15.1248 6.39616 14.7238 5.4222 13.9217 4.62012C13.1196 3.81803 12.1457 3.41699 10.9998 3.41699C9.854 3.41699 8.88005 3.81803 8.07796 4.62012C7.27588 5.4222 6.87484 6.39616 6.87484 7.54199C6.87484 8.68783 7.27588 9.66178 8.07796 10.4639C8.88005 11.266 9.854 11.667 10.9998 11.667ZM10.9998 10.017C10.3123 10.017 9.72796 9.77637 9.24671 9.29512C8.76546 8.81387 8.52484 8.22949 8.52484 7.54199C8.52484 6.85449 8.76546 6.27012 9.24671 5.78887C9.72796 5.30762 10.3123 5.06699 10.9998 5.06699C11.6873 5.06699 12.2717 5.30762 12.753 5.78887C13.2342 6.27012 13.4748 6.85449 13.4748 7.54199C13.4748 8.22949 13.2342 8.81387 12.753 9.29512C12.2717 9.77637 11.6873 10.017 10.9998 10.017ZM10.9998 14.417C8.76928 14.417 6.73734 13.7944 4.904 12.5493C3.07067 11.3041 1.7415 9.63505 0.916504 7.54199C1.7415 5.44894 3.07067 3.77984 4.904 2.5347C6.73734 1.28956 8.76928 0.666992 10.9998 0.666992C13.2304 0.666992 15.2623 1.28956 17.0957 2.5347C18.929 3.77984 20.2582 5.44894 21.0832 7.54199C20.2582 9.63505 18.929 11.3041 17.0957 12.5493C15.2623 13.7944 13.2304 14.417 10.9998 14.417ZM10.9998 12.5837C12.7262 12.5837 14.3113 12.1291 15.755 11.2201C17.1988 10.3111 18.3026 9.08505 19.0665 7.54199C18.3026 5.99894 17.1988 4.77289 15.755 3.86387C14.3113 2.95484 12.7262 2.50033 10.9998 2.50033C9.27345 2.50033 7.68838 2.95484 6.24463 3.86387C4.80088 4.77289 3.69706 5.99894 2.93317 7.54199C3.69706 9.08505 4.80088 10.3111 6.24463 11.2201C7.68838 12.1291 9.27345 12.5837 10.9998 12.5837Z" fill="white"/>
</svg>
