<svg width="22" height="16" viewBox="0 0 22 16" fill="none" xmlns="http://www.w3.org/2000/svg">
<path d="M11.0004 12.5C12.2504 12.5 13.3129 12.0625 14.1879 11.1875C15.0629 10.3125 15.5004 9.25 15.5004 8C15.5004 6.75 15.0629 5.6875 14.1879 4.8125C13.3129 3.9375 12.2504 3.5 11.0004 3.5C9.75039 3.5 8.68789 3.9375 7.81289 4.8125C6.93789 5.6875 6.50039 6.75 6.50039 8C6.50039 9.25 6.93789 10.3125 7.81289 11.1875C8.68789 12.0625 9.75039 12.5 11.0004 12.5ZM11.0004 10.7C10.2504 10.7 9.61289 10.4375 9.08789 9.9125C8.56289 9.3875 8.30039 8.75 8.30039 8C8.30039 7.25 8.56289 6.6125 9.08789 6.0875C9.61289 5.5625 10.2504 5.3 11.0004 5.3C11.7504 5.3 12.3879 5.5625 12.9129 6.0875C13.4379 6.6125 13.7004 7.25 13.7004 8C13.7004 8.75 13.4379 9.3875 12.9129 9.9125C12.3879 10.4375 11.7504 10.7 11.0004 10.7ZM11.0004 15.5C8.76706 15.5 6.72956 14.9 4.88789 13.7C3.04622 12.5 1.59206 10.9167 0.525391 8.95C0.442057 8.8 0.379557 8.64583 0.337891 8.4875C0.296224 8.32917 0.275391 8.16667 0.275391 8C0.275391 7.83333 0.296224 7.67083 0.337891 7.5125C0.379557 7.35417 0.442057 7.2 0.525391 7.05C1.59206 5.08333 3.04622 3.5 4.88789 2.3C6.72956 1.1 8.76706 0.5 11.0004 0.5C13.2337 0.5 15.2712 1.1 17.1129 2.3C18.9546 3.5 20.4087 5.08333 21.4754 7.05C21.5587 7.2 21.6212 7.35417 21.6629 7.5125C21.7046 7.67083 21.7254 7.83333 21.7254 8C21.7254 8.16667 21.7046 8.32917 21.6629 8.4875C21.6212 8.64583 21.5587 8.8 21.4754 8.95C20.4087 10.9167 18.9546 12.5 17.1129 13.7C15.2712 14.9 13.2337 15.5 11.0004 15.5ZM11.0004 13.5C12.8837 13.5 14.6129 13.0042 16.1879 12.0125C17.7629 11.0208 18.9671 9.68333 19.8004 8C18.9671 6.31667 17.7629 4.97917 16.1879 3.9875C14.6129 2.99583 12.8837 2.5 11.0004 2.5C9.11706 2.5 7.38789 2.99583 5.81289 3.9875C4.23789 4.97917 3.03372 6.31667 2.20039 8C3.03372 9.68333 4.23789 11.0208 5.81289 12.0125C7.38789 13.0042 9.11706 13.5 11.0004 13.5Z" fill="#AFAFAF"/>
</svg>
