<svg width="26" height="26" viewBox="0 0 26 26" fill="none" xmlns="http://www.w3.org/2000/svg">
<path d="M5.41602 10.8337H7.58268C9.74935 10.8337 10.8327 9.75032 10.8327 7.58366V5.41699C10.8327 3.25033 9.74935 2.16699 7.58268 2.16699H5.41602C3.24935 2.16699 2.16602 3.25033 2.16602 5.41699V7.58366C2.16602 9.75032 3.24935 10.8337 5.41602 10.8337Z" stroke="#4B5C66" stroke-width="2" stroke-miterlimit="10" stroke-linecap="round" stroke-linejoin="round"/>
<path d="M20.5827 2.16699H18.416C16.2493 2.16699 15.166 3.25033 15.166 5.41699V7.58366C15.166 9.75032 16.2493 10.8337 18.416 10.8337H20.5827C22.7493 10.8337 23.8327 9.75032 23.8327 7.58366V5.41699" stroke="#4B5C66" stroke-width="2" stroke-miterlimit="10" stroke-linecap="round" stroke-linejoin="round"/>
<path d="M18.416 23.8337H20.5827C22.7493 23.8337 23.8327 22.7503 23.8327 20.5837V18.417C23.8327 16.2503 22.7493 15.167 20.5827 15.167H18.416C16.2493 15.167 15.166 16.2503 15.166 18.417V20.5837C15.166 22.7503 16.2493 23.8337 18.416 23.8337Z" stroke="#4B5C66" stroke-width="2" stroke-miterlimit="10" stroke-linecap="round" stroke-linejoin="round"/>
<path d="M5.41602 23.8337H7.58268C9.74935 23.8337 10.8327 22.7503 10.8327 20.5837V18.417C10.8327 16.2503 9.74935 15.167 7.58268 15.167H5.41602C3.24935 15.167 2.16602 16.2503 2.16602 18.417V20.5837" stroke="#4B5C66" stroke-width="2" stroke-miterlimit="10" stroke-linecap="round" stroke-linejoin="round"/>
</svg>
