<svg width="28" height="28" viewBox="0 0 28 28" fill="none" xmlns="http://www.w3.org/2000/svg">
<path d="M25.6668 15.167V17.5003C25.6668 23.3337 23.3335 25.667 17.5002 25.667H10.5002C4.66683 25.667 2.3335 23.3337 2.3335 17.5003V15.727" stroke="white" stroke-width="1.5" stroke-linecap="round" stroke-linejoin="round"/>
<path d="M12.8335 2.33301H10.5002C4.66683 2.33301 2.3335 4.66634 2.3335 10.4997" stroke="white" stroke-width="1.5" stroke-linecap="round" stroke-linejoin="round"/>
<path d="M23.2515 10.5115L24.4765 9.28647C26.0632 7.69981 26.8099 5.85647 24.4765 3.52314C22.1432 1.18981 20.2999 1.93647 18.7132 3.52314L9.51986 12.7165C9.16986 13.0665 8.81986 13.7548 8.74986 14.2565L8.24819 17.7681C8.06153 19.0398 8.95986 19.9265 10.2315 19.7515L13.7432 19.2498C14.2332 19.1798 14.9215 18.8298 15.2832 18.4798L18.9932 14.7698L19.8449 13.9181" stroke="white" stroke-width="1.5" stroke-miterlimit="10" stroke-linecap="round" stroke-linejoin="round"/>
<path d="M17.395 4.8418C18.1767 7.63013 20.3584 9.8118 23.1584 10.6051" stroke="white" stroke-width="1.5" stroke-miterlimit="10" stroke-linecap="round" stroke-linejoin="round"/>
</svg>
