<svg width="22" height="22" viewBox="0 0 22 22" fill="none" xmlns="http://www.w3.org/2000/svg">
<path d="M8.24935 5.5C7.24102 5.5 6.41602 6.325 6.41602 7.33333C6.41602 8.34167 7.24102 9.16667 8.24935 9.16667C9.25768 9.16667 10.0827 8.34167 10.0827 7.33333" stroke="white" stroke-width="1.5" stroke-linecap="round" stroke-linejoin="round"/>
<path d="M1.83398 11.8162V13.7503C1.83398 18.3337 3.66732 20.167 8.25065 20.167H13.7507C18.334 20.167 20.1673 18.3337 20.1673 13.7503V9.16699" stroke="white" stroke-width="1.5" stroke-linecap="round" stroke-linejoin="round"/>
<path d="M11.9173 1.83301H8.25065C3.66732 1.83301 1.83398 3.66634 1.83398 8.24967" stroke="white" stroke-width="1.5" stroke-linecap="round" stroke-linejoin="round"/>
<path d="M17.546 2.37459L14.2185 5.70209C14.0901 5.83042 13.9618 6.07792 13.9435 6.26126L13.7601 7.53542C13.696 7.99376 14.0168 8.31459 14.4751 8.25042L15.7493 8.06709C15.9235 8.03959 16.1801 7.92042 16.3085 7.79209L19.636 4.46459C20.2135 3.88709 20.4793 3.22709 19.636 2.38376C18.7835 1.52209 18.1235 1.79709 17.546 2.37459Z" stroke="white" stroke-width="1.5" stroke-miterlimit="10" stroke-linecap="round" stroke-linejoin="round"/>
<path d="M17.0684 2.85059C17.3525 3.85892 18.1409 4.64725 19.1492 4.93142" stroke="white" stroke-width="1.5" stroke-miterlimit="10" stroke-linecap="round" stroke-linejoin="round"/>
<path d="M2.44727 17.3712L6.96643 14.337C7.6906 13.8512 8.7356 13.9062 9.38643 14.4653L9.68893 14.7312C10.4039 15.3453 11.5589 15.3453 12.2739 14.7312L16.0873 11.4587C16.8023 10.8445 17.9573 10.8445 18.6723 11.4587L20.1664 12.742" stroke="white" stroke-width="1.5" stroke-linecap="round" stroke-linejoin="round"/>
</svg>
