<svg width="56" height="56" viewBox="0 0 56 56" fill="none" xmlns="http://www.w3.org/2000/svg">
<rect x="0.5" y="0.5" width="55" height="55" rx="19.5" stroke="#264490"/>
<path d="M34.6004 18.1001C35.7004 18.1001 36.6004 19.0001 36.6004 20.1001V22.3001C36.6004 23.1001 36.1004 24.1001 35.6004 24.6001L31.3004 28.4001C30.7004 28.9001 30.3004 29.9001 30.3004 30.7001V35.0001C30.3004 35.6001 29.9004 36.4001 29.4004 36.7001L28.0004 37.6001C26.7004 38.4001 24.9004 37.5001 24.9004 35.9001V30.6001C24.9004 29.9001 24.5004 29.0001 24.1004 28.5001L20.3004 24.5001C19.8004 24.0001 19.4004 23.1001 19.4004 22.5001V20.2001C19.4004 19.0001 20.3004 18.1001 21.4004 18.1001H30.4004" stroke="#264490" stroke-width="1.5" stroke-miterlimit="10" stroke-linecap="round" stroke-linejoin="round"/>
<path d="M26.93 18.1001L22 26.0001" stroke="#264490" stroke-width="1.5" stroke-miterlimit="10" stroke-linecap="round" stroke-linejoin="round"/>
</svg>
