<svg width="28" height="28" viewBox="0 0 28 28" fill="none" xmlns="http://www.w3.org/2000/svg">
<path d="M10.4993 11.6667C11.788 11.6667 12.8327 10.622 12.8327 9.33333C12.8327 8.04467 11.788 7 10.4993 7C9.21068 7 8.16602 8.04467 8.16602 9.33333C8.16602 10.622 9.21068 11.6667 10.4993 11.6667Z" stroke="white" stroke-width="1.5" stroke-linecap="round" stroke-linejoin="round"/>
<path d="M15.1673 2.33301H10.5007C4.66732 2.33301 2.33398 4.66634 2.33398 10.4997V17.4997C2.33398 23.333 4.66732 25.6663 10.5007 25.6663H17.5007C23.334 25.6663 25.6673 23.333 25.6673 17.4997V11.6663" stroke="white" stroke-width="1.5" stroke-linecap="round" stroke-linejoin="round"/>
<path d="M18.375 5.83301H24.7917" stroke="white" stroke-width="1.5" stroke-linecap="round"/>
<path d="M21.584 9.04167V2.625" stroke="white" stroke-width="1.5" stroke-linecap="round"/>
<path d="M3.11523 22.1083L8.8669 18.2467C9.78857 17.6283 11.1186 17.6983 11.9469 18.41L12.3319 18.7483C13.2419 19.53 14.7119 19.53 15.6219 18.7483L20.4752 14.5833C21.3852 13.8017 22.8552 13.8017 23.7652 14.5833L25.6669 16.2167" stroke="white" stroke-width="1.5" stroke-linecap="round" stroke-linejoin="round"/>
</svg>
