<svg width="24" height="24" viewBox="0 0 24 24" fill="none" xmlns="http://www.w3.org/2000/svg">
<mask id="mask0_1018_6203" style="mask-type:luminance" maskUnits="userSpaceOnUse" x="3" y="0" width="21" height="20">
<path d="M8.77761 19.8301L8.92372 19.2001C9.24919 17.7466 10.5143 16.7317 12.0004 16.7317C13.4864 16.7317 14.7516 17.7466 15.0764 19.1961L15.2231 19.8301C17.7132 19.4669 19.6198 18.7066 20.6339 17.8442C20.8994 17.2724 21.1575 16.6858 21.4038 16.0936L21.4033 16.0909L21.4738 15.9196C21.5991 15.6154 21.7098 15.3401 21.8095 15.0844C21.8176 15.0638 21.8255 15.0429 21.8336 15.0223C21.8607 14.9525 21.8874 14.8834 21.913 14.8165L21.9392 14.7474C24.1871 8.82664 24.6259 4.17379 23.1108 2.2937C22.0217 0.942432 20.6859 0.183855 19.1338 0.0295944C19.3193 0.953186 19.4171 1.90881 19.4171 2.88704C19.4171 10.8408 12.9899 17.2886 5.06163 17.2886C4.37904 17.2886 3.70791 17.2397 3.05078 17.1473C3.15536 17.3823 3.26181 17.6147 3.36897 17.8457C4.38333 18.7075 6.28934 19.4669 8.77761 19.8301Z" fill="white"/>
</mask>
<g mask="url(#mask0_1018_6203)">
<path d="M8.77761 19.8301L8.92372 19.2001C9.24919 17.7466 10.5143 16.7317 12.0004 16.7317C13.4864 16.7317 14.7516 17.7466 15.0764 19.1961L15.2231 19.8301C17.7132 19.4669 19.6198 18.7066 20.6339 17.8442C20.8994 17.2724 21.1575 16.6858 21.4038 16.0936L21.4033 16.0909L21.4738 15.9196C21.5991 15.6154 21.7098 15.3401 21.8095 15.0844C21.8176 15.0638 21.8255 15.0429 21.8336 15.0223C21.8607 14.9525 21.8874 14.8834 21.913 14.8165L21.9392 14.7474C24.1871 8.82664 24.6259 4.17379 23.1108 2.2937C22.0217 0.942432 20.6859 0.183855 19.1338 0.0295944C19.3193 0.953186 19.4171 1.90881 19.4171 2.88704C19.4171 10.8408 12.9899 17.2886 5.06163 17.2886C4.37904 17.2886 3.70791 17.2397 3.05078 17.1473C3.15536 17.3823 3.26181 17.6147 3.36897 17.8457C4.38333 18.7075 6.28934 19.4669 8.77761 19.8301Z" fill="#DEB900"/>
</g>
<mask id="mask1_1018_6203" style="mask-type:luminance" maskUnits="userSpaceOnUse" x="15" y="21" width="4" height="3">
<path d="M15.582 21.372L15.878 22.6493C15.9534 22.9752 16.0665 23.2708 16.2144 23.5284C16.4268 23.8988 16.5858 23.9927 16.6328 23.9995C16.8154 23.962 17.5368 23.4204 18.7788 21.372H15.582Z" fill="white"/>
</mask>
<g mask="url(#mask1_1018_6203)">
<path d="M15.582 21.372L15.878 22.6493C15.9534 22.9752 16.0665 23.2708 16.2144 23.5284C16.4268 23.8988 16.5858 23.9927 16.6328 23.9995C16.8154 23.962 17.5368 23.4204 18.7788 21.372H15.582Z" fill="#DEB900"/>
</g>
<mask id="mask2_1018_6203" style="mask-type:luminance" maskUnits="userSpaceOnUse" x="5" y="21" width="4" height="3">
<path d="M5.22266 21.3721C6.47646 23.4402 7.19936 23.9721 7.36363 24C7.40322 24 7.56617 23.9131 7.78687 23.5284C7.93473 23.271 8.04782 22.9752 8.12328 22.6494L8.41922 21.3721H5.22266Z" fill="white"/>
</mask>
<g mask="url(#mask2_1018_6203)">
<path d="M5.22266 21.3721C6.47646 23.4402 7.19936 23.9721 7.36363 24C7.40322 24 7.56617 23.9131 7.78687 23.5284C7.93473 23.271 8.04782 22.9752 8.12328 22.6494L8.41922 21.3721H5.22266Z" fill="#DEB900"/>
</g>
<path d="M5.06127 17.2886C12.9895 17.2886 19.4167 10.8408 19.4167 2.88701C19.4167 1.90922 19.3189 0.954248 19.1339 0.0310955C18.9561 0.0133228 18.776 0.00146866 18.5925 -6.67572e-05H18.5313C17.6126 -6.67572e-05 16.7093 0.197424 15.8912 0.478077C13.8767 1.16731 12.3653 2.36081 12.3434 2.37836L12 2.65265L11.6566 2.37836C11.6282 2.35445 8.64688 -6.67572e-05 5.46865 -6.67572e-05C3.65764 -6.67572e-05 2.11782 0.769922 0.890704 2.293C-0.631589 4.1821 -0.183193 8.86259 2.08716 14.8158C2.179 15.0594 2.2752 15.3053 2.37371 15.5489C2.55742 16.0095 2.75214 16.4703 2.95123 16.9245C2.98395 16.9994 3.01761 17.0729 3.05057 17.1473C3.7077 17.2396 4.37868 17.2886 5.06127 17.2886Z" fill="url(#paint0_linear_1018_6203)"/>
<mask id="mask3_1018_6203" style="mask-type:luminance" maskUnits="userSpaceOnUse" x="1" y="0" width="12" height="7">
<path d="M11.6595 2.37837C11.6363 2.35884 9.64301 0.785065 7.18187 0.208836C6.8413 0.139934 6.48084 0.0791531 6.09594 0.029561H6.09585C6.05801 0.0247335 6.02203 0.0247307 5.9846 0.0207806C5.83158 0.00937033 5.67797 0.00213099 5.52374 0.000814438C1.4522 0.0572085 0.0787258 6.50325 3.90497 6.15853C8.5872 5.73656 12.0029 2.65266 12.0029 2.65266L11.6595 2.37837Z" fill="white"/>
</mask>
<g mask="url(#mask3_1018_6203)">
<path d="M11.6595 2.37837C11.6363 2.35884 9.64301 0.785065 7.18187 0.208836C6.8413 0.139934 6.48084 0.0791531 6.09594 0.029561H6.09585C6.05801 0.0247335 6.02203 0.0247307 5.9846 0.0207806C5.83158 0.00937033 5.67797 0.00213099 5.52374 0.000814438C1.4522 0.0572085 0.0787258 6.50325 3.90497 6.15853C8.5872 5.73656 12.0029 2.65266 12.0029 2.65266L11.6595 2.37837Z" fill="#DEB900"/>
</g>
<defs>
<linearGradient id="paint0_linear_1018_6203" x1="1.51138" y1="16.7658" x2="12.6296" y2="-1.21672" gradientUnits="userSpaceOnUse">
<stop stop-color="#FFD400"/>
<stop offset="0.5" stop-color="#FFF2B5"/>
<stop offset="1" stop-color="#FFD400"/>
</linearGradient>
</defs>
</svg>
