<svg width="26" height="26" viewBox="0 0 26 26" fill="none" xmlns="http://www.w3.org/2000/svg">
<path d="M3.25 5.38446C3.25 3.60779 4.70167 2.16699 6.5 2.16699H19.5C21.2983 2.16699 22.75 3.60779 22.75 5.38446V17.2037C22.75 18.9803 21.2983 20.4211 19.5 20.4211H18.6767C17.81 20.4211 16.9867 20.757 16.38 21.3636L14.5275 23.1945C13.6825 24.0286 12.3067 24.0286 11.4617 23.1945L9.60916 21.3636C9.00249 20.757 8.16833 20.4211 7.3125 20.4211H6.5C4.70167 20.4211 3.25 18.9803 3.25 17.2037V9.79364" stroke="#4B5C66" stroke-width="2" stroke-miterlimit="10" stroke-linecap="round" stroke-linejoin="round"/>
<path d="M13.3033 16.2064C13.1408 16.2605 12.87 16.2605 12.6967 16.2064C11.2883 15.7189 8.125 13.7147 8.125 10.3022C8.125 8.79635 9.33833 7.58301 10.8333 7.58301C11.7217 7.58301 12.5017 8.00551 13 8.66634C13.4983 8.00551 14.2783 7.58301 15.1667 7.58301C16.6617 7.58301 17.875 8.79635 17.875 10.3022C17.875 11.5589 17.4525 12.6205 16.8458 13.4872" stroke="#4B5C66" stroke-width="2" stroke-linecap="round" stroke-linejoin="round"/>
</svg>
