<svg width="28" height="28" viewBox="0 0 28 28" fill="none" xmlns="http://www.w3.org/2000/svg">
<path d="M24.5 6.97689C20.615 6.59189 16.7067 6.39355 12.81 6.39355C10.5 6.39355 8.19 6.51022 5.88 6.74355L3.5 6.97689" stroke="white" stroke-width="1.5" stroke-linecap="round" stroke-linejoin="round"/>
<path d="M9.9165 5.79801L10.1732 4.26967C10.3598 3.16134 10.4998 2.33301 12.4715 2.33301H15.5282C17.4998 2.33301 17.6515 3.20801 17.8265 4.28134L18.0832 5.79801" stroke="white" stroke-width="1.5" stroke-linecap="round" stroke-linejoin="round"/>
<path d="M17.745 25.6664H10.255C6.99997 25.6664 6.89497 24.2431 6.76663 22.4114L6.0083 10.6631" stroke="white" stroke-width="1.5" stroke-linecap="round" stroke-linejoin="round"/>
<path d="M21.9917 10.6631L21.2334 22.4114" stroke="white" stroke-width="1.5" stroke-linecap="round" stroke-linejoin="round"/>
<path d="M12.0518 19.25H15.9368" stroke="white" stroke-width="1.5" stroke-linecap="round" stroke-linejoin="round"/>
<path d="M14.9565 14.583H16.9165" stroke="white" stroke-width="1.5" stroke-linecap="round" stroke-linejoin="round"/>
<path d="M11.0835 14.583H12.0518" stroke="white" stroke-width="1.5" stroke-linecap="round" stroke-linejoin="round"/>
</svg>
