<svg width="21" height="20" viewBox="0 0 21 20" fill="none" xmlns="http://www.w3.org/2000/svg">
<path d="M17.834 4.98307C15.059 4.70807 12.2673 4.56641 9.48398 4.56641C7.83398 4.56641 6.18398 4.64974 4.53398 4.81641L2.83398 4.98307" stroke="#EE5248" stroke-width="1.5" stroke-linecap="round" stroke-linejoin="round"/>
<path d="M7.41797 4.14199L7.6013 3.05033C7.73464 2.25866 7.83464 1.66699 9.24297 1.66699H11.4263C12.8346 1.66699 12.943 2.29199 13.068 3.05866L13.2513 4.14199" stroke="#EE5248" stroke-width="1.5" stroke-linecap="round" stroke-linejoin="round"/>
<path d="M13.0083 18.3329H7.65833C5.33333 18.3329 5.25833 17.3162 5.16667 16.0079L4.625 7.61621" stroke="#EE5248" stroke-width="1.5" stroke-linecap="round" stroke-linejoin="round"/>
<path d="M16.0417 7.61621L15.5 16.0079" stroke="#EE5248" stroke-width="1.5" stroke-linecap="round" stroke-linejoin="round"/>
<path d="M8.94141 13.75H11.7164" stroke="#EE5248" stroke-width="1.5" stroke-linecap="round" stroke-linejoin="round"/>
<path d="M11.0176 10.417H12.4176" stroke="#EE5248" stroke-width="1.5" stroke-linecap="round" stroke-linejoin="round"/>
<path d="M8.25 10.417H8.94167" stroke="#EE5248" stroke-width="1.5" stroke-linecap="round" stroke-linejoin="round"/>
</svg>
