<svg width="94" height="94" viewBox="0 0 94 94" fill="none" xmlns="http://www.w3.org/2000/svg">
<g opacity="0.4">
<mask id="mask0_1873_8095" style="mask-type:luminance" maskUnits="userSpaceOnUse" x="12" y="1" width="83" height="77">
<path d="M35.0156 77.8413L35.5817 75.4001C36.8429 69.7677 41.7453 65.8351 47.5037 65.8351C53.2621 65.8351 58.1645 69.7677 59.4232 75.3848L59.9919 77.8413C69.6407 76.4341 77.029 73.4878 80.9583 70.1461C81.9873 67.9303 82.9874 65.6574 83.9418 63.3625L83.9401 63.3523L84.213 62.6882C84.6987 61.5097 85.1275 60.4425 85.514 59.4519C85.5454 59.372 85.5759 59.2912 85.6072 59.2113C85.7123 58.9409 85.8158 58.6731 85.9149 58.4137L86.0166 58.1459C94.7271 35.2032 96.4274 17.1735 90.5562 9.88815C86.3362 4.65203 81.16 1.71256 75.1456 1.1148C75.8644 4.6937 76.2433 8.39674 76.2433 12.1874C76.2433 43.0081 51.3381 67.9932 20.6162 67.9932C17.9712 67.9932 15.3706 67.8036 12.8242 67.4456C13.2294 68.3562 13.642 69.2567 14.0572 70.1521C17.9878 73.4912 25.3736 76.4341 35.0156 77.8413Z" fill="white"/>
</mask>
<g mask="url(#mask0_1873_8095)">
<path d="M35.0156 77.8413L35.5817 75.4001C36.8429 69.7677 41.7453 65.8351 47.5037 65.8351C53.2621 65.8351 58.1645 69.7677 59.4232 75.3848L59.9919 77.8413C69.6407 76.4341 77.029 73.4878 80.9583 70.1461C81.9873 67.9303 82.9874 65.6574 83.9418 63.3625L83.9401 63.3523L84.213 62.6882C84.6987 61.5097 85.1275 60.4425 85.514 59.4519C85.5454 59.372 85.5759 59.2912 85.6072 59.2113C85.7123 58.9409 85.8158 58.6731 85.9149 58.4137L86.0166 58.1459C94.7271 35.2032 96.4274 17.1735 90.5562 9.88815C86.3362 4.65203 81.16 1.71256 75.1456 1.1148C75.8644 4.6937 76.2433 8.39674 76.2433 12.1874C76.2433 43.0081 51.3381 67.9932 20.6162 67.9932C17.9712 67.9932 15.3706 67.8036 12.8242 67.4456C13.2294 68.3562 13.642 69.2567 14.0572 70.1521C17.9878 73.4912 25.3736 76.4341 35.0156 77.8413Z" fill="#4B6F84"/>
</g>
<mask id="mask1_1873_8095" style="mask-type:luminance" maskUnits="userSpaceOnUse" x="61" y="83" width="13" height="11">
<path d="M61.3672 83.8171L62.514 88.7667C62.8064 90.0293 63.2446 91.1747 63.8175 92.1729C64.6405 93.6082 65.2567 93.9722 65.4389 93.9985C66.1467 93.8531 68.942 91.7546 73.7545 83.8171H61.3672Z" fill="white"/>
</mask>
<g mask="url(#mask1_1873_8095)">
<path d="M61.3672 83.8171L62.514 88.7667C62.8064 90.0293 63.2446 91.1747 63.8175 92.1729C64.6405 93.6082 65.2567 93.9722 65.4389 93.9985C66.1467 93.8531 68.942 91.7546 73.7545 83.8171H61.3672Z" fill="#4B6F84"/>
</g>
<mask id="mask2_1873_8095" style="mask-type:luminance" maskUnits="userSpaceOnUse" x="21" y="83" width="13" height="11">
<path d="M21.2363 83.8168C26.0948 91.8309 28.896 93.892 29.5325 94C29.686 94 30.3174 93.6633 31.1726 92.1727C31.7456 91.1753 32.1838 90.0291 32.4762 88.7664L33.6229 83.8168H21.2363Z" fill="white"/>
</mask>
<g mask="url(#mask2_1873_8095)">
<path d="M21.2363 83.8168C26.0948 91.8309 28.896 93.892 29.5325 94C29.686 94 30.3174 93.6633 31.1726 92.1727C31.7456 91.1753 32.1838 90.0291 32.4762 88.7664L33.6229 83.8168H21.2363Z" fill="#4B6F84"/>
</g>
<path d="M19.6143 66.9932C50.3362 66.9932 75.2413 42.0081 75.2413 11.1874C75.2413 7.39844 74.8624 3.69795 74.1454 0.120758C73.4563 0.0518799 72.7588 0.00595093 72.0477 0H71.8103C68.2505 0 64.75 0.765266 61.5801 1.8528C53.774 4.52358 47.9172 9.14835 47.8325 9.21638L46.5018 10.2792L45.1711 9.21638C45.0609 9.12369 33.5085 0 21.1929 0C14.1752 0 8.20848 2.98369 3.45342 8.8856C-2.44544 16.2058 -0.707916 34.3426 8.08965 57.4112C8.44554 58.355 8.8183 59.3082 9.20005 60.252C9.91193 62.0368 10.6664 63.8224 11.4379 65.5825C11.5647 65.8725 11.6951 66.1573 11.8229 66.4456C14.3692 66.8036 16.9693 66.9932 19.6143 66.9932Z" fill="url(#paint0_linear_1873_8095)"/>
<mask id="mask3_1873_8095" style="mask-type:luminance" maskUnits="userSpaceOnUse" x="7" y="1" width="41" height="24">
<path d="M46.1735 10.2162C46.0836 10.1406 38.3597 4.04223 28.8228 1.80935C27.5031 1.54236 26.1063 1.30683 24.6148 1.11466H24.6145C24.4679 1.09596 24.3284 1.09595 24.1834 1.08064C23.5905 1.03642 22.9952 1.00837 22.3976 1.00327C6.62043 1.2218 1.29825 26.2001 16.1249 24.8643C34.2685 23.2292 47.5042 11.2791 47.5042 11.2791L46.1735 10.2162Z" fill="white"/>
</mask>
<g mask="url(#mask3_1873_8095)">
<path d="M46.1735 10.2162C46.0836 10.1406 38.3597 4.04223 28.8228 1.80935C27.5031 1.54236 26.1063 1.30683 24.6148 1.11466H24.6145C24.4679 1.09596 24.3284 1.09595 24.1834 1.08064C23.5905 1.03642 22.9952 1.00837 22.3976 1.00327C6.62043 1.2218 1.29825 26.2001 16.1249 24.8643C34.2685 23.2292 47.5042 11.2791 47.5042 11.2791L46.1735 10.2162Z" fill="#4B6F84"/>
</g>
</g>
<defs>
<linearGradient id="paint0_linear_1873_8095" x1="37.6216" y1="66.9932" x2="37.6216" y2="0" gradientUnits="userSpaceOnUse">
<stop stop-color="#4B6F84"/>
<stop offset="1" stop-color="#A2C2D6"/>
</linearGradient>
</defs>
</svg>
