<svg width="22" height="22" viewBox="0 0 22 22" fill="none" xmlns="http://www.w3.org/2000/svg">
<path d="M13.3938 5.50933C13.2288 5.7385 13.1096 5.94933 13.0271 6.151C12.9446 6.3435 12.8988 6.536 12.8988 6.71016C12.8988 6.93016 12.963 7.15016 13.0913 7.361C13.2105 7.57183 13.3846 7.79183 13.6046 8.01183L14.3013 8.736C14.4021 8.83683 14.448 8.956 14.448 9.10266C14.448 9.176 14.4388 9.24016 14.4205 9.3135C14.393 9.38683 14.3655 9.44183 14.3471 9.49683C14.1821 9.79933 13.898 10.1935 13.4946 10.6702C13.0821 11.1468 12.6421 11.6327 12.1655 12.1185C11.6705 12.6043 11.1938 13.0535 10.708 13.466C10.2313 13.8693 9.83714 14.1443 9.52547 14.3093C9.47964 14.3277 9.42464 14.3552 9.36047 14.3827C9.28714 14.4102 9.2138 14.4193 9.1313 14.4193C8.97547 14.4193 8.8563 14.3643 8.75547 14.2635L8.0588 13.576C7.82964 13.3468 7.60964 13.1727 7.3988 13.0627C7.18797 12.9343 6.97714 12.8702 6.74797 12.8702C6.5738 12.8702 6.39047 12.9068 6.1888 12.9893C5.98714 13.0718 5.7763 13.191 5.54714 13.3468L2.51297 15.501C2.27464 15.666 2.10964 15.8585 2.0088 16.0877C1.91714 16.3168 1.86214 16.546 1.86214 16.8027C1.86214 17.1327 1.93547 17.4718 2.0913 17.8018C2.24714 18.1318 2.4488 18.4435 2.71464 18.7368C3.1638 19.2318 3.6588 19.5893 4.21797 19.8185C4.76797 20.0477 5.3638 20.1668 6.00547 20.1668C6.94047 20.1668 7.93964 19.9468 8.9938 19.4977C10.048 19.0485 11.1021 18.4435 12.1471 17.6827C13.2013 16.9127 14.2005 16.0602 15.1538 15.116C16.098 14.1627 16.9505 13.1635 17.7113 12.1185C18.463 11.0735 19.068 10.0285 19.508 8.99266C19.948 7.94766 20.168 6.9485 20.168 5.99516C20.168 5.37183 20.058 4.776 19.838 4.226C19.618 3.66683 19.2696 3.1535 18.7838 2.69516C18.1971 2.11766 17.5555 1.8335 16.8771 1.8335C16.6205 1.8335 16.3638 1.8885 16.1346 1.9985C15.8963 2.1085 15.6855 2.2735 15.5205 2.51183" stroke="#4B5C66" stroke-width="1.5" stroke-miterlimit="10" stroke-linecap="round" stroke-linejoin="round"/>
</svg>
