<svg width="40" height="40" viewBox="0 0 40 40" fill="none" xmlns="http://www.w3.org/2000/svg">
<rect width="40" height="40" rx="20" fill="url(#paint0_linear_1018_9901)"/>
<path d="M22.61 14.01C22.43 14.26 22.3 14.49 22.21 14.71C22.12 14.92 22.07 15.13 22.07 15.32C22.07 15.56 22.14 15.8 22.28 16.03C22.41 16.26 22.6 16.5 22.84 16.74L23.6 17.53C23.71 17.64 23.76 17.77 23.76 17.93C23.76 18.01 23.75 18.08 23.73 18.16C23.7 18.24 23.67 18.3 23.65 18.36C23.47 18.69 23.16 19.12 22.72 19.64C22.27 20.16 21.79 20.69 21.27 21.22C20.73 21.75 20.21 22.24 19.68 22.69C19.16 23.13 18.73 23.43 18.39 23.61C18.34 23.63 18.28 23.66 18.21 23.69C18.13 23.72 18.05 23.73 17.96 23.73C17.79 23.73 17.66 23.67 17.55 23.56L16.79 22.81C16.54 22.56 16.3 22.37 16.07 22.25C15.84 22.11 15.61 22.04 15.36 22.04C15.17 22.04 14.97 22.08 14.75 22.17C14.53 22.26 14.3 22.39 14.05 22.56L10.74 24.91C10.48 25.09 10.3 25.3 10.19 25.55C10.09 25.8 10.03 26.05 10.03 26.33C10.03 26.69 10.11 27.06 10.28 27.42C10.45 27.78 10.67 28.12 10.96 28.44C11.45 28.98 11.99 29.37 12.6 29.62C13.2 29.87 13.85 30 14.55 30C15.57 30 16.66 29.76 17.81 29.27C18.96 28.78 20.11 28.12 21.25 27.29C22.4 26.45 23.49 25.52 24.53 24.49C25.56 23.45 26.49 22.36 27.32 21.22C28.14 20.08 28.8 18.94 29.28 17.81C29.76 16.67 30 15.58 30 14.54C30 13.86 29.88 13.21 29.64 12.61C29.4 12 29.02 11.44 28.49 10.94C27.85 10.31 27.15 10 26.41 10C26.13 10 25.85 10.06 25.6 10.18C25.34 10.3 25.11 10.48 24.93 10.74" stroke="white" stroke-width="1.5" stroke-miterlimit="10" stroke-linecap="round" stroke-linejoin="round"/>
<defs>
<linearGradient id="paint0_linear_1018_9901" x1="20" y1="0" x2="20" y2="40" gradientUnits="userSpaceOnUse">
<stop stop-color="#264490"/>
<stop offset="0.5" stop-color="#5CAFCD"/>
<stop offset="1" stop-color="#264490"/>
</linearGradient>
</defs>
</svg>
