<svg width="36" height="36" viewBox="0 0 36 36" fill="none" xmlns="http://www.w3.org/2000/svg">
<path fill-rule="evenodd" clip-rule="evenodd" d="M24 4.5C28.1421 4.5 31.5 7.85787 31.5 12V24C31.5 28.1421 28.1421 31.5 24 31.5H12C7.85787 31.5 4.5 28.1421 4.5 24L4.5 12C4.5 7.85787 7.85787 4.5 12 4.5L24 4.5ZM24 7.5L12 7.5C9.51473 7.5 7.5 9.51473 7.5 12L7.5 24C7.5 26.4853 9.51473 28.5 12 28.5H24C26.4853 28.5 28.5 26.4853 28.5 24V12C28.5 9.51473 26.4853 7.5 24 7.5ZM18 12C21.3137 12 24 14.6863 24 18C24 21.3137 21.3137 24 18 24C14.6863 24 12 21.3137 12 18C12 14.6863 14.6863 12 18 12ZM18 15C16.3431 15 15 16.3431 15 18C15 19.6569 16.3431 21 18 21C19.6569 21 21 19.6569 21 18C21 16.3431 19.6569 15 18 15ZM24.75 9.75C25.5784 9.75 26.25 10.4216 26.25 11.25C26.25 12.0784 25.5784 12.75 24.75 12.75C23.9216 12.75 23.25 12.0784 23.25 11.25C23.25 10.4216 23.9216 9.75 24.75 9.75Z" fill="url(#paint0_linear_1186_12076)"/>
<defs>
<linearGradient id="paint0_linear_1186_12076" x1="18" y1="4.5" x2="18" y2="31.5" gradientUnits="userSpaceOnUse">
<stop stop-color="#264490"/>
<stop offset="0.5" stop-color="#5CAFCD"/>
<stop offset="1" stop-color="#264490"/>
</linearGradient>
</defs>
</svg>
