<svg width="25" height="24" viewBox="0 0 25 24" fill="none" xmlns="http://www.w3.org/2000/svg">
<path d="M2.89568 7.91114C2.94245 6.88915 3.10248 6.23002 3.31889 5.67052L3.3218 5.66279C3.53625 5.09345 3.87219 4.57769 4.30625 4.15139L4.31234 4.14541L4.31832 4.13932C4.74498 3.7047 5.26092 3.36909 5.82976 3.1552L5.83957 3.15145C6.39779 2.93437 7.05564 2.77494 8.07848 2.72818M2.89568 7.91114C2.84651 9.0031 2.83398 9.34158 2.83398 12.1728C2.83398 15.0046 2.84583 15.3423 2.89566 16.4345M2.89568 7.91114L2.89568 8.18659M3.32268 18.6833C3.53657 19.2521 3.87219 19.768 4.3068 20.1947L4.31288 20.2007L4.31886 20.2067C4.74517 20.6408 5.26095 20.9768 5.8303 21.1912L5.8388 21.1944C6.39752 21.4111 7.05569 21.5706 8.07848 21.6174M3.32268 18.6833L3.31893 18.6734C3.10185 18.1152 2.94242 17.4574 2.89566 16.4345M3.32268 18.6833L3.30986 18.6157M2.89566 16.4345L2.9124 16.5227M2.89566 16.4345L2.89566 16.1584M3.30986 18.6157L2.9124 16.5227M3.30986 18.6157C3.14106 18.1698 2.96724 17.5476 2.9124 16.5227M3.30986 18.6157C3.31578 18.6314 3.3217 18.6468 3.3276 18.662C3.54168 19.2391 3.88087 19.7617 4.3208 20.1921C4.7511 20.632 5.27346 20.9711 5.85037 21.1852C6.31336 21.3655 6.96574 21.554 8.07833 21.605C9.20111 21.6561 9.548 21.6665 12.3402 21.6665C15.1325 21.6665 15.4797 21.6561 16.6025 21.605C17.7164 21.5539 18.368 21.3644 18.8294 21.1855C19.4066 20.9715 19.9293 20.6322 20.3597 20.1921C20.7995 19.7618 21.1386 19.2395 21.3527 18.6626C21.533 18.1996 21.7215 17.5473 21.7725 16.4347C21.8236 15.3119 21.834 14.9643 21.834 12.1728C21.834 9.38122 21.8235 9.03334 21.7724 7.91055C21.7211 6.79077 21.5299 6.13819 21.3501 5.67642C21.1151 5.06973 20.8171 4.61088 20.359 4.15278C19.9018 3.69649 19.4442 3.3983 18.837 3.16305C18.3736 2.98187 17.7206 2.79181 16.6025 2.74057C16.5052 2.73614 16.4138 2.73202 16.3261 2.72819M2.9124 16.5227C2.91086 16.4938 2.9094 16.4646 2.90805 16.435C2.90362 16.3377 2.8995 16.2462 2.89566 16.1584M8.07848 2.72818C9.17069 2.67835 9.50906 2.6665 12.3402 2.6665C15.1714 2.6665 15.5096 2.67902 16.6016 2.72819M8.07848 2.72818L8.35463 2.72818M16.6016 2.72819L16.3261 2.72819M16.6016 2.72819C17.6237 2.77494 18.283 2.93494 18.8425 3.15137L18.8502 3.15432C19.4196 3.36877 19.9353 3.70471 20.3616 4.13877L20.3675 4.1448L20.3736 4.15072C20.8077 4.57706 21.1436 5.09296 21.3579 5.66246L21.3616 5.67209C21.5786 6.23031 21.7381 6.88816 21.7848 7.911M8.35463 2.72818L16.3261 2.72819M8.35463 2.72818C9.27949 2.68774 9.79067 2.67903 12.3402 2.67903C14.89 2.67903 15.4011 2.68774 16.3261 2.72819M8.35463 2.72818C8.26686 2.73202 8.17536 2.73614 8.07803 2.74057C6.96405 2.79162 6.31244 2.98114 5.8511 3.16008C5.27169 3.37487 4.7473 3.71587 4.31594 4.15837C3.86211 4.61406 3.56506 5.07072 3.33056 5.6759C3.14937 6.13931 2.95928 6.79264 2.90804 7.91085C2.90362 8.00785 2.89951 8.09908 2.89568 8.18659M21.7848 16.4345C21.7381 17.4573 21.5786 18.1155 21.362 18.6742L21.3587 18.6827C21.1442 19.2521 20.8083 19.7678 20.3742 20.1941L20.3682 20.2001L20.3622 20.2062C19.9355 20.6408 19.4196 20.9764 18.8507 21.1903L18.8409 21.1941C18.2827 21.4112 17.6249 21.5706 16.602 21.6174M2.89566 16.1584C2.85522 15.2335 2.84651 14.7224 2.84651 12.1728C2.84651 9.62241 2.85521 9.11194 2.89568 8.18659M2.89566 16.1584L2.89568 8.18659M10.6495 16.2546C11.1855 16.4766 11.7601 16.5909 12.3403 16.5909C13.512 16.5909 14.6358 16.1254 15.4644 15.2969C16.2929 14.4683 16.7584 13.3445 16.7584 12.1728C16.7584 11.001 16.2929 9.87722 15.4644 9.04866C14.6358 8.22009 13.512 7.75461 12.3403 7.75461C11.7601 7.75461 11.1855 7.86889 10.6495 8.09092C10.1135 8.31295 9.62641 8.63839 9.21614 9.04866C8.80588 9.45892 8.48044 9.94597 8.25841 10.482C8.03637 11.018 7.92209 11.5926 7.92209 12.1728C7.92209 12.753 8.03637 13.3275 8.25841 13.8635C8.48044 14.3996 8.80588 14.8866 9.21614 15.2969C9.62641 15.7071 10.1135 16.0326 10.6495 16.2546ZM9.2063 9.03881C10.0375 8.20764 11.1648 7.74069 12.3403 7.74069C13.5157 7.74069 14.643 8.20764 15.4742 9.03881C16.3054 9.86999 16.7723 10.9973 16.7723 12.1728C16.7723 13.3482 16.3054 14.4755 15.4742 15.3067C14.643 16.1379 13.5157 16.6048 12.3403 16.6048C11.1648 16.6048 10.0375 16.1379 9.2063 15.3067C8.37512 14.4755 7.90817 13.3482 7.90817 12.1728C7.90817 10.9973 8.37512 9.86999 9.2063 9.03881ZM19.268 6.7088C19.268 7.04524 19.1344 7.3679 18.8965 7.6058C18.6586 7.84369 18.3359 7.97734 17.9995 7.97734C17.663 7.97734 17.3404 7.84369 17.1025 7.6058C16.8646 7.3679 16.7309 7.04524 16.7309 6.7088C16.7309 6.37236 16.8646 6.0497 17.1025 5.8118C17.3404 5.5739 17.663 5.44025 17.9995 5.44025C18.3359 5.44025 18.6586 5.5739 18.8965 5.8118C19.1344 6.0497 19.268 6.37236 19.268 6.7088Z" stroke="white" stroke-width="1.25" stroke-linejoin="round"/>
</svg>
