<svg width="554" height="570" viewBox="0 0 554 570" fill="none" xmlns="http://www.w3.org/2000/svg">
<rect width="554" height="570" rx="32" fill="#F7FAFD"/>
<g opacity="0.4">
<mask id="mask0_1873_8093" style="mask-type:luminance" maskUnits="userSpaceOnUse" x="242" y="239" width="83" height="77">
<path d="M265.016 315.841L265.582 313.4C266.843 307.768 271.745 303.835 277.504 303.835C283.262 303.835 288.165 307.768 289.423 313.385L289.992 315.841C299.641 314.434 307.029 311.488 310.958 308.146C311.987 305.93 312.987 303.657 313.942 301.362L313.94 301.352L314.213 300.688C314.699 299.51 315.128 298.443 315.514 297.452C315.545 297.372 315.576 297.291 315.607 297.211C315.712 296.941 315.816 296.673 315.915 296.414L316.017 296.146C324.727 273.203 326.427 255.173 320.556 247.888C316.336 242.652 311.16 239.713 305.146 239.115C305.864 242.694 306.243 246.397 306.243 250.187C306.243 281.008 281.338 305.993 250.616 305.993C247.971 305.993 245.371 305.804 242.824 305.446C243.229 306.356 243.642 307.257 244.057 308.152C247.988 311.491 255.374 314.434 265.016 315.841Z" fill="white"/>
</mask>
<g mask="url(#mask0_1873_8093)">
<path d="M265.016 315.841L265.582 313.4C266.843 307.768 271.745 303.835 277.504 303.835C283.262 303.835 288.165 307.768 289.423 313.385L289.992 315.841C299.641 314.434 307.029 311.488 310.958 308.146C311.987 305.93 312.987 303.657 313.942 301.362L313.94 301.352L314.213 300.688C314.699 299.51 315.128 298.443 315.514 297.452C315.545 297.372 315.576 297.291 315.607 297.211C315.712 296.941 315.816 296.673 315.915 296.414L316.017 296.146C324.727 273.203 326.427 255.173 320.556 247.888C316.336 242.652 311.16 239.713 305.146 239.115C305.864 242.694 306.243 246.397 306.243 250.187C306.243 281.008 281.338 305.993 250.616 305.993C247.971 305.993 245.371 305.804 242.824 305.446C243.229 306.356 243.642 307.257 244.057 308.152C247.988 311.491 255.374 314.434 265.016 315.841Z" fill="#4B6F84"/>
</g>
<mask id="mask1_1873_8093" style="mask-type:luminance" maskUnits="userSpaceOnUse" x="291" y="321" width="13" height="11">
<path d="M291.367 321.817L292.514 326.767C292.806 328.029 293.245 329.175 293.818 330.173C294.641 331.608 295.257 331.972 295.439 331.999C296.147 331.853 298.942 329.755 303.754 321.817H291.367Z" fill="white"/>
</mask>
<g mask="url(#mask1_1873_8093)">
<path d="M291.367 321.817L292.514 326.767C292.806 328.029 293.245 329.175 293.818 330.173C294.641 331.608 295.257 331.972 295.439 331.999C296.147 331.853 298.942 329.755 303.754 321.817H291.367Z" fill="#4B6F84"/>
</g>
<mask id="mask2_1873_8093" style="mask-type:luminance" maskUnits="userSpaceOnUse" x="251" y="321" width="13" height="11">
<path d="M251.236 321.817C256.095 329.831 258.896 331.892 259.533 332C259.686 332 260.317 331.663 261.173 330.173C261.746 329.175 262.184 328.029 262.476 326.766L263.623 321.817H251.236Z" fill="white"/>
</mask>
<g mask="url(#mask2_1873_8093)">
<path d="M251.236 321.817C256.095 329.831 258.896 331.892 259.533 332C259.686 332 260.317 331.663 261.173 330.173C261.746 329.175 262.184 328.029 262.476 326.766L263.623 321.817H251.236Z" fill="#4B6F84"/>
</g>
<path d="M249.614 304.993C280.336 304.993 305.241 280.008 305.241 249.187C305.241 245.398 304.862 241.698 304.145 238.121C303.456 238.052 302.759 238.006 302.048 238H301.81C298.251 238 294.75 238.765 291.58 239.853C283.774 242.524 277.917 247.148 277.832 247.216L276.502 248.279L275.171 247.216C275.061 247.124 263.508 238 251.193 238C244.175 238 238.208 240.984 233.453 246.886C227.555 254.206 229.292 272.343 238.09 295.411C238.446 296.355 238.818 297.308 239.2 298.252C239.912 300.037 240.666 301.822 241.438 303.583C241.565 303.872 241.695 304.157 241.823 304.446C244.369 304.804 246.969 304.993 249.614 304.993Z" fill="url(#paint0_linear_1873_8093)"/>
<mask id="mask3_1873_8093" style="mask-type:luminance" maskUnits="userSpaceOnUse" x="237" y="239" width="41" height="24">
<path d="M276.173 248.216C276.084 248.141 268.36 242.042 258.823 239.809C257.503 239.542 256.106 239.307 254.615 239.115H254.615C254.468 239.096 254.328 239.096 254.183 239.081C253.59 239.036 252.995 239.008 252.398 239.003C236.62 239.222 231.298 264.2 246.125 262.864C264.268 261.229 277.504 249.279 277.504 249.279L276.173 248.216Z" fill="white"/>
</mask>
<g mask="url(#mask3_1873_8093)">
<path d="M276.173 248.216C276.084 248.141 268.36 242.042 258.823 239.809C257.503 239.542 256.106 239.307 254.615 239.115H254.615C254.468 239.096 254.328 239.096 254.183 239.081C253.59 239.036 252.995 239.008 252.398 239.003C236.62 239.222 231.298 264.2 246.125 262.864C264.268 261.229 277.504 249.279 277.504 249.279L276.173 248.216Z" fill="#4B6F84"/>
</g>
</g>
<defs>
<linearGradient id="paint0_linear_1873_8093" x1="267.622" y1="304.993" x2="267.622" y2="238" gradientUnits="userSpaceOnUse">
<stop stop-color="#4B6F84"/>
<stop offset="1" stop-color="#A2C2D6"/>
</linearGradient>
</defs>
</svg>
