<svg width="25" height="24" viewBox="0 0 25 24" fill="none" xmlns="http://www.w3.org/2000/svg">
<path fill-rule="evenodd" clip-rule="evenodd" d="M22.4961 12C22.4961 17.5228 18.0189 22 12.4961 22C6.97325 22 2.49609 17.5228 2.49609 12C2.49609 6.47715 6.97325 2 12.4961 2C18.0189 2 22.4961 6.47715 22.4961 12ZM12.8544 9.38244C11.8818 9.787 9.93786 10.6243 7.02266 11.8944C6.54928 12.0827 6.3013 12.2669 6.27872 12.4469C6.24057 12.7513 6.62168 12.8711 7.14065 13.0343C7.21124 13.0565 7.28438 13.0795 7.35936 13.1038C7.86995 13.2698 8.55677 13.464 8.91382 13.4717C9.2377 13.4787 9.59919 13.3452 9.99828 13.0711C12.722 11.2325 14.1281 10.3032 14.2163 10.2831C14.2786 10.269 14.3649 10.2512 14.4234 10.3032C14.4819 10.3552 14.4761 10.4536 14.4699 10.48C14.4322 10.641 12.9362 12.0318 12.162 12.7515C11.9207 12.9759 11.7495 13.135 11.7145 13.1714C11.6361 13.2528 11.5562 13.3298 11.4794 13.4038C11.0051 13.8611 10.6493 14.204 11.4991 14.764C11.9074 15.0331 12.2342 15.2556 12.5602 15.4776C12.9162 15.7201 13.2713 15.9619 13.7308 16.2631C13.8478 16.3398 13.9596 16.4195 14.0685 16.4971C14.4828 16.7925 14.855 17.0579 15.3149 17.0155C15.5821 16.991 15.8581 16.7397 15.9983 15.9903C16.3296 14.2193 16.9808 10.3821 17.1313 8.80081C17.1445 8.66228 17.1279 8.48498 17.1145 8.40715C17.1012 8.32932 17.0734 8.21842 16.9722 8.13633C16.8524 8.03911 16.6674 8.01861 16.5847 8.02C16.2086 8.0267 15.6315 8.22735 12.8544 9.38244Z" stroke="white" stroke-width="1.25" stroke-linejoin="round"/>
</svg>
