<svg width="31" height="27" viewBox="0 0 31 27" fill="none" xmlns="http://www.w3.org/2000/svg">
<path fill-rule="evenodd" clip-rule="evenodd" d="M30.7601 3.08422C31.0482 1.33718 29.2988 -0.04271 27.6669 0.644395L2.01652 11.4446C0.227885 12.1976 0.136235 14.7833 2.01779 15.5633C3.40991 16.1404 5.54047 16.9865 7.67725 17.6911C9.42995 18.2689 11.3406 18.8053 12.8713 18.9571C13.2903 19.4584 13.8177 19.9399 14.3535 20.3804C15.174 21.0553 16.1621 21.7514 17.1819 22.4179C19.2243 23.7524 21.4905 25.0294 23.018 25.859C24.8433 26.8505 27.0285 25.7089 27.3567 23.7193L30.7601 3.08422ZM4.89325 13.4884L27.5789 3.93652L24.4023 23.197C22.9046 22.3825 20.7455 21.1627 18.8229 19.9066C17.8503 19.2709 16.962 18.6415 16.259 18.0634C16.0086 17.8574 15.7967 17.6699 15.6201 17.5021L21.5618 11.5603C22.1475 10.9745 22.1475 10.0247 21.5618 9.43899C20.976 8.85319 20.0262 8.85319 19.4405 9.43899L12.9331 15.9463C11.833 15.8056 10.2993 15.3967 8.6166 14.842C7.32162 14.4149 6.01958 13.93 4.89325 13.4884Z" fill="url(#paint0_linear_1186_12082)"/>
<defs>
<linearGradient id="paint0_linear_1186_12082" x1="15.716" y1="0.464355" x2="15.716" y2="26.2228" gradientUnits="userSpaceOnUse">
<stop stop-color="#264490"/>
<stop offset="0.5" stop-color="#5CAFCD"/>
<stop offset="1" stop-color="#264490"/>
</linearGradient>
</defs>
</svg>
