<svg width="26" height="26" viewBox="0 0 26 26" fill="none" xmlns="http://www.w3.org/2000/svg">
<path opacity="0.2" d="M11.6456 2.65418C12.3931 2.01501 13.6173 2.01501 14.3756 2.65418L16.0873 4.12751C16.4123 4.40918 17.019 4.63668 17.4523 4.63668H19.294C20.4423 4.63668 21.3848 5.57918 21.3848 6.72751V8.56918C21.3848 8.99168 21.6123 9.60918 21.894 9.93418L23.3673 11.6458C24.0065 12.3933 24.0065 13.6175 23.3673 14.3758L21.894 16.0875C21.6123 16.4125 21.3848 17.0192 21.3848 17.4525V19.2942C21.3848 20.4425 20.4423 21.385 19.294 21.385H17.4523C17.0298 21.385 16.4123 21.6125 16.0873 21.8942L14.3756 23.3675C13.6281 24.0067 12.404 24.0067 11.6456 23.3675L9.93396 21.8942C9.60896 21.6125 9.00229 21.385 8.56896 21.385H6.69479C5.54646 21.385 4.60396 20.4425 4.60396 19.2942V17.4417C4.60396 17.0192 4.37646 16.4125 4.10562 16.0875L2.64313 14.365C2.01479 13.6175 2.01479 12.4042 2.64313 11.6567L4.10562 9.93418C4.37646 9.60918 4.60396 9.00251 4.60396 8.58001V6.71668C4.60396 5.56835 5.54646 4.62585 6.69479 4.62585H8.56896C8.99146 4.62585 9.60896 4.39835 9.93396 4.11668L11.6456 2.65418Z" fill="#90C095"/>
<path d="M11.6893 16.4344C11.4726 16.4344 11.2668 16.3477 11.1151 16.196L8.49344 13.5744C8.17927 13.2602 8.17927 12.7402 8.49344 12.426C8.8076 12.1119 9.3276 12.1119 9.64177 12.426L11.6893 14.4735L16.3476 9.81521C16.6618 9.50105 17.1818 9.50105 17.4959 9.81521C17.8101 10.1294 17.8101 10.6494 17.4959 10.9635L12.2634 16.196C12.1118 16.3477 11.9059 16.4344 11.6893 16.4344Z" fill="#90C095"/>
</svg>
