<svg width="28" height="28" viewBox="0 0 28 28" fill="none" xmlns="http://www.w3.org/2000/svg">
<path opacity="0.2" d="M12.5423 2.85854C13.3473 2.1702 14.6657 2.1702 15.4823 2.85854L17.3257 4.4452C17.6757 4.74854 18.329 4.99354 18.7957 4.99354H20.779C22.0157 4.99354 23.0307 6.00854 23.0307 7.2452V9.22854C23.0307 9.68354 23.2757 10.3485 23.579 10.6985L25.1657 12.5419C25.854 13.3469 25.854 14.6652 25.1657 15.4819L23.579 17.3252C23.2757 17.6752 23.0307 18.3285 23.0307 18.7952V20.7785C23.0307 22.0152 22.0157 23.0302 20.779 23.0302H18.7957C18.3407 23.0302 17.6757 23.2752 17.3257 23.5785L15.4823 25.1652C14.6773 25.8535 13.359 25.8535 12.5423 25.1652L10.699 23.5785C10.349 23.2752 9.69568 23.0302 9.22901 23.0302H7.21068C5.97401 23.0302 4.95901 22.0152 4.95901 20.7785V18.7835C4.95901 18.3285 4.71401 17.6752 4.42234 17.3252L2.84734 15.4702C2.17068 14.6652 2.17068 13.3585 2.84734 12.5535L4.42234 10.6985C4.71401 10.3485 4.95901 9.6952 4.95901 9.2402V7.23354C4.95901 5.99687 5.97401 4.98187 7.21068 4.98187H9.22901C9.68401 4.98187 10.349 4.73687 10.699 4.43354L12.5423 2.85854Z" fill="#264490"/>
<path d="M12.5899 17.6985C12.3566 17.6985 12.1349 17.6052 11.9716 17.4418L9.14828 14.6185C8.80995 14.2802 8.80995 13.7202 9.14828 13.3818C9.48661 13.0435 10.0466 13.0435 10.3849 13.3818L12.5899 15.5868L17.6066 10.5702C17.9449 10.2318 18.5049 10.2318 18.8433 10.5702C19.1816 10.9085 19.1816 11.4685 18.8433 11.8068L13.2083 17.4418C13.0449 17.6052 12.8233 17.6985 12.5899 17.6985Z" fill="#264490"/>
</svg>
