<?xml version="1.0" encoding="UTF-8"?>
<svg id="Layer_1" xmlns="http://www.w3.org/2000/svg" xmlns:xlink="http://www.w3.org/1999/xlink" viewBox="0 0 36 36">
  <defs>
    <style>
      .cls-1 {
        fill: #fff;
        stroke: url(#linear-gradient);
        stroke-miterlimit: 10;
        stroke-width: .75px;
      }
    </style>
    <linearGradient id="linear-gradient" x1="18" y1="33.38" x2="18" y2="2.62" gradientUnits="userSpaceOnUse">
      <stop offset="0" stop-color="#264490"/>
      <stop offset=".02" stop-color="#284993"/>
      <stop offset=".16" stop-color="#3e75ac"/>
      <stop offset=".3" stop-color="#4e94be"/>
      <stop offset=".41" stop-color="#58a8c9"/>
      <stop offset=".48" stop-color="#5cafcd"/>
      <stop offset=".57" stop-color="#56a4c7"/>
      <stop offset=".72" stop-color="#4888b7"/>
      <stop offset=".91" stop-color="#315b9d"/>
      <stop offset="1" stop-color="#264490"/>
    </linearGradient>
  </defs>
  <path class="cls-1" d="M18,3c8.28,0,15,6.72,15,15s-6.72,15-15,15c-2.65,0-5.13-.69-7.29-1.89l-.46-.27-4.55,1.34c-1.1.32-2.12-.63-1.92-1.72l.04-.16,1.34-4.55c-1.37-2.26-2.16-4.92-2.16-7.75,0-8.28,6.72-15,15-15ZM18,6c-6.63,0-12,5.37-12,12,0,2.37.68,4.57,1.86,6.42.3.47.42,1.04.32,1.62l-.06.24-.66,2.25,2.25-.66c.65-.19,1.32-.07,1.86.27,1.86,1.18,4.06,1.86,6.42,1.86,6.63,0,12-5.37,12-12s-5.37-12-12-12ZM13.65,10.78c.32-.14.72-.11,1.03.11.76.55,1.36,1.29,1.87,2.02l.49.71c.08.12.15.23.23.34.27.4.24.93-.07,1.3l-.11.11-1.39,1.03c-.14.1-.18.29-.1.44.31.57.87,1.42,1.51,2.06s1.53,1.23,2.14,1.58c.13.08.29.05.4-.05l.06-.07.9-1.37c.35-.46.99-.56,1.46-.24l.81.57c.81.58,1.59,1.2,2.2,1.99.24.31.28.72.13,1.05-.59,1.39-2.1,2.57-3.66,2.51h-.24s-.29-.04-.29-.04c-.05,0-.11-.01-.16-.02l-.36-.06c-1.39-.26-3.61-1.05-5.91-3.35-2.3-2.3-3.09-4.52-3.35-5.91l-.06-.36-.04-.31-.02-.26s0-.08,0-.11c-.06-1.57,1.13-3.07,2.52-3.66Z"/>
</svg>