<svg width="36" height="36" viewBox="0 0 36 36" fill="none" xmlns="http://www.w3.org/2000/svg">
<path d="M18 3C26.2842 3 33 9.71572 33 18C33 26.2842 26.2842 33 18 33C15.3546 33 12.8656 32.314 10.7054 31.1096L10.2476 30.8436L5.69963 32.1813C4.60404 32.5036 3.58233 31.5494 3.77981 30.464L3.81871 30.3003L5.15634 25.7525C3.78758 23.4891 3 20.8344 3 18C3 9.71572 9.71572 3 18 3ZM18 6C11.3726 6 6 11.3726 6 18C6 20.3654 6.6828 22.5666 7.86147 24.4227C8.15903 24.8914 8.2856 25.4671 8.18478 26.0383L8.12748 26.2826L7.465 28.535L9.71741 27.8725C10.3661 27.6817 11.0417 27.7985 11.5773 28.1385C13.4335 29.3172 15.6347 30 18 30C24.6275 30 30 24.6275 30 18C30 11.3726 24.6275 6 18 6ZM13.6524 10.7761C13.9762 10.6374 14.3683 10.6628 14.6783 10.8889C15.435 11.4408 16.0357 12.1811 16.5516 12.9052L17.0419 13.6162C17.1197 13.7313 17.1959 13.844 17.2707 13.9534C17.5445 14.3538 17.5129 14.8858 17.2027 15.2489L17.0891 15.3633L15.704 16.392C15.5667 16.494 15.5209 16.6792 15.6033 16.8292C15.9168 17.3997 16.4751 18.2486 17.1139 18.8874C17.7535 19.527 18.6426 20.1215 19.2522 20.4701C19.3839 20.5454 19.544 20.5216 19.6515 20.4235L19.7091 20.3559L20.6103 18.9833C20.9557 18.5235 21.601 18.423 22.0701 18.7476L22.8844 19.3152C23.6936 19.8927 24.4725 20.5136 25.0882 21.3021C25.3308 21.6127 25.3668 22.0188 25.2222 22.3563C24.6282 23.7424 23.1248 24.923 21.561 24.8654L21.3232 24.8516L21.0353 24.8231C20.9833 24.8169 20.9294 24.8099 20.8737 24.8019L20.5171 24.7428C19.1316 24.4812 16.9089 23.6955 14.6074 21.3941C12.306 19.0926 11.5202 16.8698 11.2586 15.4843L11.1995 15.1277L11.1619 14.8161L11.1413 14.5529C11.1391 14.5132 11.1374 14.4757 11.1361 14.4404C11.0784 12.8744 12.2653 11.3706 13.6524 10.7761Z" fill="url(#paint0_linear_1186_12072)"/>
<defs>
<linearGradient id="paint0_linear_1186_12072" x1="18" y1="3" x2="18" y2="33" gradientUnits="userSpaceOnUse">
<stop stop-color="#264490"/>
<stop offset="0.5" stop-color="#5CAFCD"/>
<stop offset="1" stop-color="#264490"/>
</linearGradient>
</defs>
</svg>
