<svg width="40" height="40" viewBox="0 0 40 40" fill="none" xmlns="http://www.w3.org/2000/svg">
<rect width="40" height="40" rx="20" fill="url(#paint0_linear_1018_9909)"/>
<path d="M23.1199 18.3099C23.1199 20.0299 21.7299 21.4299 19.9999 21.4299C18.2699 21.4299 16.8799 20.0399 16.8799 18.3099C16.8799 16.5799 18.2799 15.1899 19.9999 15.1899C20.3399 15.1899 20.6699 15.2399 20.9699 15.3399" stroke="white" stroke-width="1.5" stroke-linecap="round" stroke-linejoin="round"/>
<path d="M13.98 12.3001C18.35 8.19006 26.82 9.60006 28.38 16.5101C29.53 21.5901 26.37 25.8901 23.6 28.5501C21.59 30.4901 18.41 30.4901 16.39 28.5501C13.63 25.8801 10.46 21.5801 11.62 16.5001" stroke="white" stroke-width="1.5" stroke-linecap="round" stroke-linejoin="round"/>
<defs>
<linearGradient id="paint0_linear_1018_9909" x1="20" y1="0" x2="20" y2="40" gradientUnits="userSpaceOnUse">
<stop stop-color="#264490"/>
<stop offset="0.5" stop-color="#5CAFCD"/>
<stop offset="1" stop-color="#264490"/>
</linearGradient>
</defs>
</svg>
