<svg id="Layer_1" data-name="Layer 1" xmlns="http://www.w3.org/2000/svg" xmlns:xlink="http://www.w3.org/1999/xlink" viewBox="0 0 18 18"><defs><style>.cls-1{fill:#fff;}.cls-2{mask:url(#mask);}.cls-3{fill:#929ba0;}.cls-4{mask:url(#mask-2);}.cls-5{mask:url(#mask-3);}.cls-6{fill:#c7ced3;}.cls-7{mask:url(#mask-4);}</style><mask id="mask" x="2.29" y="0.02" width="15.71" height="14.85" maskUnits="userSpaceOnUse"><g transform="translate(-0.87 -0.88)"><g id="mask0_1018_6879" data-name="mask0 1018 6879"><path class="cls-1" d="M7.45,15.75l.11-.47a2.37,2.37,0,0,1,4.62,0l.11.47a8.48,8.48,0,0,0,4.05-1.48c.2-.43.4-.87.58-1.32h0l0-.13.26-.62v0A.52.52,0,0,0,17.3,12l0-.05C19,7.5,19.34,4,18.2,2.6a4.32,4.32,0,0,0-3-1.7,10.89,10.89,0,0,1,.21,2.15A10.78,10.78,0,0,1,4.67,13.85a10.62,10.62,0,0,1-1.51-.11l.24.53A8.48,8.48,0,0,0,7.45,15.75Z"/></g></g></mask><mask id="mask-2" x="11.69" y="16.03" width="2.4" height="1.97" maskUnits="userSpaceOnUse"><g transform="translate(-0.87 -0.88)"><g id="mask1_1018_6879" data-name="mask1 1018 6879"><path class="cls-1" d="M12.55,16.91l.23,1a2.26,2.26,0,0,0,.25.66c.16.28.28.35.31.35s.68-.43,1.61-2Z"/></g></g></mask><mask id="mask-3" x="3.92" y="16.03" width="2.4" height="1.97" maskUnits="userSpaceOnUse"><g transform="translate(-0.87 -0.88)"><g id="mask2_1018_6879" data-name="mask2 1018 6879"><path class="cls-1" d="M4.78,16.91c.94,1.55,1.49,1.95,1.61,2s.15-.06.32-.35A2.59,2.59,0,0,0,7,17.87l.22-1Z"/></g></g></mask><mask id="mask-4" x="1.23" y="0" width="7.77" height="4.63" maskUnits="userSpaceOnUse"><g transform="translate(-0.87 -0.88)"><g id="mask3_1018_6879" data-name="mask3 1018 6879"><path class="cls-1" d="M9.61,2.67A9.47,9.47,0,0,0,6.25,1C6,1,5.73.94,5.44.9H5.36L5,.88C2,.93.93,5.76,3.8,5.5A11.61,11.61,0,0,0,9.87,2.87Z"/></g></g></mask></defs><g class="cls-2"><path class="cls-3" d="M7.45,15.75l.11-.47a2.37,2.37,0,0,1,4.62,0l.11.47a8.48,8.48,0,0,0,4.05-1.48c.2-.43.4-.87.58-1.32h0l0-.13.26-.62v0A.52.52,0,0,0,17.3,12l0-.05C19,7.5,19.34,4,18.2,2.6a4.32,4.32,0,0,0-3-1.7,10.89,10.89,0,0,1,.21,2.15A10.78,10.78,0,0,1,4.67,13.85a10.62,10.62,0,0,1-1.51-.11l.24.53A8.48,8.48,0,0,0,7.45,15.75Z" transform="translate(-0.87 -0.88)"/></g><g class="cls-4"><path class="cls-3" d="M12.55,16.91l.23,1a2.26,2.26,0,0,0,.25.66c.16.28.28.35.31.35s.68-.43,1.61-2Z" transform="translate(-0.87 -0.88)"/></g><g class="cls-5"><path class="cls-3" d="M4.78,16.91c.94,1.55,1.49,1.95,1.61,2s.15-.06.32-.35A2.59,2.59,0,0,0,7,17.87l.22-1Z" transform="translate(-0.87 -0.88)"/></g><path class="cls-6" d="M4.66,13.85A10.79,10.79,0,0,0,15.43,3.05,10.71,10.71,0,0,0,15.22.91a2.73,2.73,0,0,0-.41,0h0a6.15,6.15,0,0,0-2,.36,9.65,9.65,0,0,0-2.66,1.43l-.26.2-.26-.2A8.66,8.66,0,0,0,5,.88,4.26,4.26,0,0,0,1.54,2.6C.39,4,.73,7.53,2.43,12c.07.19.14.37.22.55.14.35.28.69.43,1l.08.16A10.59,10.59,0,0,0,4.66,13.85Z" transform="translate(-0.87 -0.88)"/><g class="cls-7"><path class="cls-3" d="M9.61,2.67A9.47,9.47,0,0,0,6.25,1C6,1,5.73.94,5.44.9H5.36L5,.88C2,.93.93,5.76,3.8,5.5A11.61,11.61,0,0,0,9.87,2.87Z" transform="translate(-0.87 -0.88)"/></g></svg>